<?xml version="1.0" encoding="UTF-8"?>
<svg width="4000px" height="673px" viewBox="0 0 4000 673" version="1.1" xmlns="http://www.w3.org/2000/svg" xmlns:xlink="http://www.w3.org/1999/xlink">
    <title>g10</title>
    <g id="Page-1" stroke="none" stroke-width="1" fill="none" fill-rule="evenodd">
        <g id="shutterstock_679261426" transform="translate(0, 0)" fill="#FCE347" fill-rule="nonzero">
            <g id="g10" transform="translate(2000, 336.3) scale(-1, 1) rotate(-180) translate(-2000, -336.3)translate(0, 0)">
                <polyline id="path12" points="353.606658 137.199997 135.066663 0 198.018662 250.24266 0 415.68799 257.45066 433.145323 353.606658 672.599983 449.763989 433.145323 707.213316 415.68799 509.194654 250.24266 572.147986 0 353.606658 137.199997"></polyline>
                <polyline id="path14" points="1176.80397 137.199997 958.262643 0 1021.21597 250.24266 823.197313 415.68799 1080.64664 433.145323 1176.80397 672.599983 1272.9613 433.145323 1530.4133 415.68799 1332.39063 250.24266 1395.34663 0 1176.80397 137.199997"></polyline>
                <polyline id="path16" points="1999.99995 137.199997 1781.45329 0 1844.41329 250.24266 1646.38663 415.68799 1903.83995 433.145323 1999.99995 672.599983 2096.15995 433.145323 2353.61327 415.68799 2155.58661 250.24266 2218.54661 0 1999.99995 137.199997"></polyline>
                <polyline id="path18" points="2823.19993 137.199997 2604.65327 0 2667.61327 250.24266 2469.5866 415.68799 2727.03993 433.145323 2823.19993 672.599983 2919.35993 433.145323 3176.79992 415.68799 2978.78659 250.24266 3041.73326 0 2823.19993 137.199997"></polyline>
                <polyline id="path20" points="3646.38658 137.199997 3427.85325 0 3490.79991 250.24266 3292.78658 415.68799 3550.23991 433.145323 3646.38658 672.599983 3742.54657 433.145323 3999.9999 415.68799 3801.98657 250.24266 3864.93324 0 3646.38658 137.199997"></polyline>
            </g>
        </g>
    </g>
</svg>